Coordinates
version=1
nRows=12
nColumns=46
inDegrees=yes

Units are S.I. units (second, meters, Newtons, ...)
Angles are in degrees.

endheader
time	pelvis_tilt	pelvis_list	pelvis_rotation	pelvis_tx	pelvis_ty	pelvis_tz	bb_angle	bb_tx	bb_ty	bb_tz	hip_flexion_r	hip_adduction_r	hip_rotation_r	knee_angle_r	knee_angle_r_beta	ankle_angle_r	subtalar_angle_r	mtp_angle_r	crank_angle_r	hip_flexion_l	hip_adduction_l	hip_rotation_l	knee_angle_l	knee_angle_l_beta	ankle_angle_l	subtalar_angle_l	mtp_angle_l	crank_angle_l	lumbar_extension	lumbar_bending	lumbar_rotation	arm_flex_r	arm_add_r	arm_rot_r	elbow_flex_r	pro_sup_r	wrist_flex_r	wrist_dev_r	arm_flex_l	arm_add_l	arm_rot_l	elbow_flex_l	pro_sup_l	wrist_flex_l	wrist_dev_l
      0.00000000	    -17.80553677	      2.00593014	      0.76825473	      0.12175908	      1.14067697	     -0.26078227	      0.00000000	      0.50000000	      0.00000000	      0.25000000	     42.34840177	     -4.96309166	     -4.55959151	     26.46672051	      0.46193142	     13.76620991	      4.59912164	      0.00000000	      0.00000000	     84.43238432	    -10.37587539	     -1.07262226	    113.35018169	      1.97833388	     15.70207010	      3.09073657	      0.00000000	      0.00000000	    -47.53570291	     -1.56817756	      1.40402256	     89.77791442	     -2.02067750	     27.68869954	     25.12359530	     23.63607587	      0.00000000	      0.00000000	     89.66517286	      2.14816233	     27.55390243	     24.57960196	     24.13267523	      0.00000000	      0.00000000
      0.00500000	    -17.80207694	      1.98728181	      0.78717178	      0.12174421	      1.14071546	     -0.26084494	      0.00000000	      0.50000000	      0.00000000	      0.25000000	     42.33055519	     -4.95676605	     -4.55506729	     26.44259957	      0.46151043	     13.74584830	      4.58103770	      0.00000000	      0.00000000	     84.43474769	    -10.34005749	     -1.04487561	    113.34040559	      1.97816325	     15.67260033	      3.04208645	      0.00000000	      0.00000000	    -47.53687821	     -1.54179915	      1.41659819	     89.77841639	     -2.07586416	     28.07142854	     25.71356237	     20.38133024	      0.00000000	      0.00000000	     89.66430962	      2.26399560	     27.29477403	     25.09036734	     21.35439462	      0.00000000	      0.00000000
      0.01000000	    -17.80420573	      2.01062165	      0.77340659	      0.12174950	      1.14072600	     -0.26082612	      0.00000000	      0.50000000	      0.00000000	      0.25000000	     42.34952878	     -4.97360759	     -4.55390951	     26.46604525	      0.46191963	     13.74606170	      4.61233652	      0.00000000	      0.00000000	     84.42456469	    -10.33758626	     -1.06971440	    113.33852938	      1.97813051	     15.68200859	      3.02622847	      0.00000000	      0.00000000	    -47.52648898	     -1.56431154	      1.40765159	     89.77902294	     -2.02324760	     27.85812675	     25.18532356	     22.95588625	      0.00000000	      0.00000000	     89.66466318	      2.15761487	     27.63365467	     24.61968655	     23.74945709	      0.00000000	      0.00000000
      0.01500000	    -17.78774114	      2.00853809	      0.81465692	      0.12175892	      1.14081392	     -0.26097947	      0.00000000	      0.50000000	      0.00000000	      0.25000000	     42.32414896	     -5.00506343	     -4.57424600	     26.46519746	      0.46190483	     13.73097589	      4.59114935	      0.00000000	      0.00000000	     84.39693480	    -10.26481724	     -1.08530963	    113.32021771	      1.97781091	     15.66232143	      2.90673014	      0.00000000	      0.00000000	    -47.61310623	     -1.47906879	      1.40219177	     89.77129120	     -1.14841809	     23.18557800	     25.10725783	     26.91670915	      0.00000000	      0.00000000	     89.66341385	      2.95285274	     23.77306126	     24.13896516	     27.34841635	      0.00000000	      0.00000000
      0.02000000	    -17.66825208	      1.92010660	      0.83399989	      0.12183344	      1.14097112	     -0.26091233	      0.00000000	      0.50000000	      0.00000000	      0.25000000	     42.12245914	     -4.93886171	     -4.67997101	     26.32012327	      0.45937281	     13.66758865	      4.59303469	      0.00000000	      0.00000000	     84.30822003	    -10.26003687	     -0.91278872	    113.36141039	      1.97852986	     15.73325745	      3.13265172	      0.00000000	      0.00000000	    -47.81056986	     -1.39115022	      1.46798154	     89.77237212	     -1.24773273	     22.95512044	     25.26097172	     27.52041917	      0.00000000	      0.00000000	     89.65172707	      2.86639465	     23.62193554	     24.53486565	     28.01499567	      0.00000000	      0.00000000
      0.02500000	    -17.83003905	      2.02018407	      0.81187798	      0.12174731	      1.14058607	     -0.26093121	      0.00000000	      0.50000000	      0.00000000	      0.25000000	     42.40468660	     -5.02648637	     -4.60284331	     26.51393236	      0.46275542	     13.72897976	      4.62417118	      0.00000000	      0.00000000	     84.47956023	    -10.25855924	     -1.05390542	    113.35643790	      1.97844307	     15.61737253	      2.96425657	      0.00000000	      0.00000000	    -47.51308467	     -1.53934198	      1.34359429	     89.77830593	     -2.02591082	     27.93668383	     25.73628911	     20.19093871	      0.00000000	      0.00000000	     89.66292174	      2.26642758	     27.67672140	     25.06363043	     21.27739597	      0.00000000	      0.00000000
      0.03000000	    -17.83020679	      2.01279659	      0.81719251	      0.12175988	      1.14058852	     -0.26096273	      0.00000000	      0.50000000	      0.00000000	      0.25000000	     42.40900473	     -5.02763828	     -4.61130664	     26.52212899	      0.46289848	     13.69350970	      4.59932205	      0.00000000	      0.00000000	     84.48763729	    -10.24030389	     -1.04278661	    113.36246896	      1.97854833	     15.59316762	      2.88701074	      0.00000000	      0.00000000	    -47.51797484	     -1.51957703	      1.34793559	     89.77920280	     -2.06456889	     28.01500336	     25.57974116	     21.11530944	      0.00000000	      0.00000000	     89.66259777	      2.23469967	     27.72828657	     24.93642077	     22.00385716	      0.00000000	      0.00000000
      0.03500000	    -17.83569040	      2.02548621	      0.79796937	      0.12175898	      1.14055497	     -0.26090878	      0.00000000	      0.50000000	      0.00000000	      0.25000000	     42.43196532	     -5.02713597	     -4.59399862	     26.54976519	      0.46338082	     13.72718980	      4.64707932	      0.00000000	      0.00000000	     84.49005329	    -10.25496656	     -1.04735259	    113.36517352	      1.97859553	     15.60762427	      2.95427128	      0.00000000	      0.00000000	    -47.49711324	     -1.54423962	      1.35964074	     89.77918757	     -2.09465287	     28.04867111	     25.20581633	     22.91263142	      0.00000000	      0.00000000	     89.66558551	      2.14285802	     28.15058256	     24.56520126	     23.70834702	      0.00000000	      0.00000000
      0.04000000	    -17.81072153	      2.02210362	      0.81471052	      0.12177560	      1.14063642	     -0.26094783	      0.00000000	      0.50000000	      0.00000000	      0.25000000	     42.40090295	     -5.03436076	     -4.60733183	     26.54581297	      0.46331184	     13.70747711	      4.59544143	      0.00000000	      0.00000000	     84.46454926	    -10.22415289	     -1.03967052	    113.36067910	      1.97851709	     15.59046493	      2.92536571	      0.00000000	      0.00000000	    -47.53754504	     -1.53288806	      1.35680685	     89.77843254	     -2.04087001	     27.80822066	     25.77736150	     20.26640431	      0.00000000	      0.00000000	     89.66371971	      2.24438075	     27.82893682	     25.08876536	     21.14991041	      0.00000000	      0.00000000
      0.04500000	    -17.82392215	      2.01171125	      0.80844924	      0.12175722	      1.14058899	     -0.26095008	      0.00000000	      0.50000000	      0.00000000	      0.25000000	     42.42560734	     -5.01786678	     -4.58474384	     26.56096872	      0.46357636	     13.70999773	      4.59001127	      0.00000000	      0.00000000	     84.49025902	    -10.22405338	     -1.02321299	    113.36627984	      1.97861484	     15.57349856	      2.91212237	      0.00000000	      0.00000000	    -47.52078761	     -1.52269480	      1.36976270	     89.77792262	     -2.05338094	     27.85302887	     25.75770446	     20.35968346	      0.00000000	      0.00000000	     89.66429099	      2.24687600	     27.87923717	     25.07865624	     21.13999861	      0.00000000	      0.00000000
      0.05000000	    -17.83131131	      2.03437341	      0.82705285	      0.12173951	      1.14057094	     -0.26105769	      0.00000000	      0.50000000	      0.00000000	      0.25000000	     42.46093697	     -5.07343008	     -4.64868007	     26.61817998	      0.46457488	     13.77719216	      4.76230096	      0.00000000	      0.00000000	     84.49932379	    -10.17479596	     -1.05508932	    113.36018079	      1.97850840	     15.52504542	      2.79591432	      0.00000000	      0.00000000	    -47.54742175	     -1.50352518	      1.32535105	     89.77563524	     -1.55196387	     25.33458547	     25.35747958	     23.82840344	      0.00000000	      0.00000000	     89.65982354	      2.65717856	     25.36159401	     24.66201258	     24.19707942	      0.00000000	      0.00000000
      0.05500000	    -17.82206308	      2.01222867	      0.79856850	      0.12177263	      1.14057243	     -0.26091599	      0.00000000	      0.50000000	      0.00000000	      0.25000000	     42.44062394	     -5.00320994	     -4.54351458	     26.59374331	      0.46414838	     13.69496270	      4.52945098	      0.00000000	      0.00000000	     84.49551113	    -10.23143020	     -1.02599535	    113.37365490	      1.97874356	     15.55534890	      2.87410547	      0.00000000	      0.00000000	    -47.51329756	     -1.52862626	      1.38408845	     89.77892454	     -2.11030541	     27.97325767	     25.05211602	     23.91099800	      0.00000000	      0.00000000	     89.66567745	      2.16256893	     28.11176334	     24.40052534	     24.65093953	      0.00000000	      0.00000000
